<svg width="260" height="76" viewBox="0 0 260 76" fill="none" xmlns="http://www.w3.org/2000/svg">
<path fill-rule="evenodd" clip-rule="evenodd" d="M2 2H69.5432C73.3409 2 76.4191 5.07887 76.4191 8.87777V74.4043H8.87592C5.07795 74.4043 2 71.3254 2 67.5265V2Z" fill="#2F5C7C"/>
<path d="M2 2H69.5432C73.3409 2 76.4191 5.07887 76.4191 8.87777V74.4043H8.87592C5.07795 74.4043 2 71.3254 2 67.5265V2" stroke="white" stroke-width="2.99149"/>
<path d="M98.624 17.574L95.768 17.2V15.738H112.598L113.074 20.736H111.442L110.524 17.472L101.412 17.302V27.196L107.668 27.094L108.11 24.272H109.81V31.786H108.11L107.668 28.896L101.412 28.794V39.266L111.816 38.994L113.55 34.744L115.182 35.254L114.128 41H95.7V39.538L98.624 39.232V17.574ZM115.57 15.738H123.832V17.2L120.704 17.574L126.62 33.962L128.048 38.586L129.34 33.894L134.644 17.574L131.924 17.2V15.738H139.098V17.2L136.922 17.574L128.728 41.272H126.484L117.678 17.574L115.57 17.2V15.738ZM150.255 41.374C148.057 41.374 146.164 40.8413 144.577 39.776C143.013 38.688 141.823 37.1807 141.007 35.254C140.191 33.3273 139.783 31.0947 139.783 28.556C139.783 25.9493 140.282 23.66 141.279 21.688C142.277 19.6933 143.637 18.1633 145.359 17.098C147.082 16.01 148.997 15.466 151.105 15.466C153.349 15.466 155.265 15.9873 156.851 17.03C158.461 18.0727 159.673 19.546 160.489 21.45C161.328 23.354 161.747 25.5867 161.747 28.148C161.747 30.7773 161.237 33.1007 160.217 35.118C159.197 37.1127 157.815 38.654 156.069 39.742C154.324 40.83 152.386 41.374 150.255 41.374ZM150.799 17.064C148.374 17.064 146.447 18.05 145.019 20.022C143.591 21.9713 142.877 24.816 142.877 28.556C142.877 30.732 143.183 32.67 143.795 34.37C144.407 36.07 145.303 37.396 146.481 38.348C147.66 39.3 149.065 39.776 150.697 39.776C152.284 39.776 153.667 39.3453 154.845 38.484C156.024 37.6 156.942 36.2853 157.599 34.54C158.257 32.7947 158.585 30.664 158.585 28.148C158.585 25.9493 158.279 24.0227 157.667 22.368C157.055 20.6907 156.16 19.3873 154.981 18.458C153.825 17.5287 152.431 17.064 150.799 17.064ZM172.687 41.374C171.531 41.374 170.511 41.272 169.627 41.068C168.743 40.864 167.723 40.5807 166.567 40.218C165.796 39.9687 165.332 39.8327 165.173 39.81L165.445 33.758H167.213L167.723 38.212C168.154 38.62 168.834 38.9713 169.763 39.266C170.715 39.5607 171.746 39.708 172.857 39.708C174.693 39.708 176.098 39.2887 177.073 38.45C178.048 37.6113 178.535 36.4553 178.535 34.982C178.535 34.03 178.274 33.2253 177.753 32.568C177.254 31.9107 176.597 31.3553 175.781 30.902C174.988 30.4487 173.877 29.916 172.449 29.304C171.112 28.7373 169.967 28.1707 169.015 27.604C168.086 27.0373 167.27 26.278 166.567 25.326C165.864 24.3513 165.513 23.1953 165.513 21.858C165.513 20.6113 165.853 19.5007 166.533 18.526C167.213 17.5513 168.154 16.8033 169.355 16.282C170.579 15.738 171.973 15.466 173.537 15.466C174.489 15.466 175.328 15.5453 176.053 15.704C176.801 15.84 177.742 16.0667 178.875 16.384C179.487 16.5653 179.85 16.6673 179.963 16.69L179.759 22.266H178.059L177.447 18.05C177.175 17.8233 176.642 17.608 175.849 17.404C175.078 17.1773 174.251 17.064 173.367 17.064C171.69 17.064 170.409 17.4153 169.525 18.118C168.641 18.798 168.199 19.818 168.199 21.178C168.199 22.1073 168.437 22.8893 168.913 23.524C169.389 24.136 170.001 24.6573 170.749 25.088C171.497 25.5187 172.653 26.0967 174.217 26.822C175.849 27.5927 177.118 28.2613 178.025 28.828C178.954 29.372 179.759 30.0973 180.439 31.004C181.142 31.888 181.493 32.9647 181.493 34.234C181.493 35.4353 181.142 36.5913 180.439 37.702C179.736 38.79 178.716 39.674 177.379 40.354C176.042 41.034 174.478 41.374 172.687 41.374ZM188.289 17.574L184.991 17.2V15.738H194.409V17.2L191.111 17.574V39.232L194.409 39.572V41H184.991V39.538L188.289 39.232V17.574ZM206.495 17.268L200.035 17.472L198.947 24.374H197.077L197.655 15.738H218.361L218.735 24.374H216.933L215.981 17.472L209.419 17.268V39.232L214.281 39.538V41H202.041V39.538L206.495 39.232V17.268ZM224.165 17.574L221.309 17.2V15.738H238.139L238.615 20.736H236.983L236.065 17.472L226.953 17.302V27.196L233.209 27.094L233.651 24.272H235.351V31.786H233.651L233.209 28.896L226.953 28.794V39.266L237.357 38.994L239.091 34.744L240.723 35.254L239.669 41H221.241V39.538L224.165 39.232V17.574ZM96.176 51.976L94.832 51.8V51.112H102.752L102.976 53.464H102.208L101.776 51.928L97.488 51.848V56.504L100.432 56.456L100.64 55.128H101.44V58.664H100.64L100.432 57.304L97.488 57.256V62.184L102.384 62.056L103.2 60.056L103.968 60.296L103.472 63H94.8V62.312L96.176 62.168V51.976ZM109.399 56.984L106.023 51.992L104.791 51.8V51.112H109.271V51.8L107.639 51.992L110.327 56.296L112.983 51.976L111.543 51.8V51.112H115.367V51.8L114.103 51.992L110.759 56.824L114.391 62.168L115.671 62.312V63H111.207V62.312L112.775 62.168L109.863 57.528L107.063 62.168L108.711 62.312V63H104.503V62.312L105.895 62.168L109.399 56.984ZM120.535 51H121.847L125.863 62.168L126.903 62.312V63H122.999V62.312L124.407 62.168L123.559 59.624H118.567L117.719 62.152L119.143 62.312V63H115.543V62.312L116.567 62.168L120.535 51ZM121.463 53.464L121.015 51.944L120.583 53.512L118.839 58.792H123.271L121.463 53.464ZM129.36 51.976L127.584 51.8V51.112H131.36L133.84 58.504L134.432 60.648L134.96 58.504L137.424 51.112H141.168V51.8L139.408 51.976L140.672 62.152L142.128 62.312V63H137.824V62.312L139.312 62.168L138.576 54.872L138.224 51.672L137.52 53.88L134.624 62.424H133.984L131.264 54.776L130.224 51.672L129.904 54.872L129.248 62.168L130.816 62.312V63H126.816V62.312L128.176 62.168L129.36 51.976ZM144.474 51.976L143.194 51.8V51.112H145.13C145.365 51.112 145.594 51.1067 145.818 51.096C146.053 51.0747 146.223 51.064 146.33 51.064C146.885 51.0213 147.418 51 147.93 51C149.434 51 150.495 51.2827 151.114 51.848C151.743 52.4027 152.058 53.24 152.058 54.36C152.058 55.2027 151.855 55.9333 151.45 56.552C151.045 57.1707 150.495 57.6453 149.802 57.976C149.109 58.296 148.335 58.456 147.482 58.456C147.141 58.456 146.789 58.4507 146.426 58.44C146.074 58.4187 145.861 58.4027 145.786 58.392V62.152L148.01 62.312V63H143.098V62.312L144.474 62.168V51.976ZM145.786 57.608C146.053 57.6507 146.629 57.672 147.514 57.672C148.431 57.672 149.183 57.416 149.77 56.904C150.357 56.3813 150.65 55.5333 150.65 54.36C150.65 53.432 150.399 52.7707 149.898 52.376C149.397 51.9707 148.607 51.768 147.53 51.768C147.199 51.768 146.831 51.7893 146.426 51.832C146.106 51.8533 145.893 51.864 145.786 51.864V57.608ZM154.724 51.976L153.38 51.8V51.112H157.636V51.8L156.036 51.976V62.168L160.596 62.04L161.492 59.544L162.26 59.672L161.668 63H153.348V62.312L154.724 62.168V51.976ZM164.77 51.976L163.426 51.8V51.112H171.346L171.57 53.464H170.802L170.37 51.928L166.082 51.848V56.504L169.026 56.456L169.234 55.128H170.034V58.664H169.234L169.026 57.304L166.082 57.256V62.184L170.978 62.056L171.794 60.056L172.562 60.296L172.066 63H163.394V62.312L164.77 62.168V51.976ZM181.357 63.176C180.813 63.176 180.333 63.128 179.917 63.032C179.501 62.936 179.021 62.8027 178.477 62.632C178.115 62.5147 177.896 62.4507 177.821 62.44L177.949 59.592H178.781L179.021 61.688C179.224 61.88 179.544 62.0453 179.981 62.184C180.429 62.3227 180.915 62.392 181.437 62.392C182.301 62.392 182.963 62.1947 183.421 61.8C183.88 61.4053 184.109 60.8613 184.109 60.168C184.109 59.72 183.987 59.3413 183.741 59.032C183.507 58.7227 183.197 58.4613 182.813 58.248C182.44 58.0347 181.917 57.784 181.245 57.496C180.616 57.2293 180.077 56.9627 179.629 56.696C179.192 56.4293 178.808 56.072 178.477 55.624C178.147 55.1653 177.981 54.6213 177.981 53.992C177.981 53.4053 178.141 52.8827 178.461 52.424C178.781 51.9653 179.224 51.6133 179.789 51.368C180.365 51.112 181.021 50.984 181.757 50.984C182.205 50.984 182.6 51.0213 182.941 51.096C183.293 51.16 183.736 51.2667 184.269 51.416C184.557 51.5013 184.728 51.5493 184.781 51.56L184.685 54.184H183.885L183.597 52.2C183.469 52.0933 183.219 51.992 182.845 51.896C182.483 51.7893 182.093 51.736 181.677 51.736C180.888 51.736 180.285 51.9013 179.869 52.232C179.453 52.552 179.245 53.032 179.245 53.672C179.245 54.1093 179.357 54.4773 179.581 54.776C179.805 55.064 180.093 55.3093 180.445 55.512C180.797 55.7147 181.341 55.9867 182.077 56.328C182.845 56.6907 183.443 57.0053 183.869 57.272C184.307 57.528 184.685 57.8693 185.005 58.296C185.336 58.712 185.501 59.2187 185.501 59.816C185.501 60.3813 185.336 60.9253 185.005 61.448C184.675 61.96 184.195 62.376 183.565 62.696C182.936 63.016 182.2 63.176 181.357 63.176ZM188.7 51.976L187.148 51.8V51.112H191.58V51.8L190.028 51.976V62.168L191.58 62.328V63H187.148V62.312L188.7 62.168V51.976ZM197.267 51.832L194.227 51.928L193.715 55.176H192.835L193.107 51.112H202.851L203.027 55.176H202.179L201.731 51.928L198.643 51.832V62.168L200.931 62.312V63H195.171V62.312L197.267 62.168V51.832ZM205.582 51.976L204.238 51.8V51.112H212.158L212.382 53.464H211.614L211.182 51.928L206.894 51.848V56.504L209.838 56.456L210.046 55.128H210.846V58.664H210.046L209.838 57.304L206.894 57.256V62.184L211.79 62.056L212.606 60.056L213.374 60.296L212.878 63H204.206V62.312L205.582 62.168V51.976Z" fill="white"/>
<path d="M26.97 22.26L22.57 21.545V18.135H51.885L52.6 27.375H48.75L46.935 21.93L35.055 21.435V36.23L42.7 36.065L43.58 31.555H47.1V44.865H43.58L42.7 40.135L35.055 39.97V55.48L48.365 54.82L51.555 47.78L55.68 48.935L54.25 59H22.625V55.7L26.97 55.15V22.26Z" fill="white"/>
</svg>
